HIERARCHY
ROOT Hips
{
    OFFSET 0.000000 0.000000 0.000000
    CHANNELS 6 Xposition Yposition Zposition Zrotation Xrotation Yrotation
    JOINT Spine
    {
        OFFSET -0.000000 7.236184 0.000000
        CHANNELS 3 Zrotation Xrotation Yrotation
        JOINT Spine1
        {
            OFFSET -0.000000 20.420147 0.000000
            CHANNELS 3 Zrotation Xrotation Yrotation
            JOINT Neck
            {
                OFFSET -0.000000 20.336288 1.848754
                CHANNELS 3 Zrotation Xrotation Yrotation
                JOINT Head
                {
                    OFFSET -0.000000 12.354461 -1.764923
                    CHANNELS 3 Zrotation Xrotation Yrotation
                    End Site
                    {
                        OFFSET -0.000000 22.061537 0.000000
                    }
                }
            }
            JOINT LeftShoulder
            {
                OFFSET 3.573296 18.396038 -0.314103
                CHANNELS 3 Zrotation Xrotation Yrotation
                JOINT LeftArm
                {
                    OFFSET 10.880760 0.000000 0.000000
                    CHANNELS 3 Zrotation Xrotation Yrotation
                    JOINT LeftForeArm
                    {
                        OFFSET 27.185530 0.000000 0.000000
                        CHANNELS 3 Zrotation Xrotation Yrotation
                        JOINT LeftHand
                        {
                            OFFSET 27.825975 0.000000 0.000000
                            CHANNELS 3 Zrotation Xrotation Yrotation
                            End Site
                            {
                                OFFSET 13.236923 0.000000 0.000000
                            }
                        }
                    }
                }
            }
            JOINT RightShoulder
            {
                OFFSET -3.474926 18.396038 -0.314103
                CHANNELS 3 Zrotation Xrotation Yrotation
                JOINT RightArm
                {
                    OFFSET -10.880760 0.000000 0.000000
                    CHANNELS 3 Zrotation Xrotation Yrotation
                    JOINT RightForeArm
                    {
                        OFFSET -27.185530 0.000000 0.000000
                        CHANNELS 3 Zrotation Xrotation Yrotation
                        JOINT RightHand
                        {
                            OFFSET -27.825975 0.000000 0.000000
                            CHANNELS 3 Zrotation Xrotation Yrotation
                            End Site
                            {
                                OFFSET -13.236923 0.000000 0.000000
                            }
                        }
                    }
                }
            }
        }
    }
    JOINT LeftUpLeg
    {
        OFFSET 8.824615 0.000000 0.000000
        CHANNELS 3 Zrotation Xrotation Yrotation
        JOINT LeftLeg
        {
            OFFSET -0.000000 -35.111282 0.000000
            CHANNELS 3 Zrotation Xrotation Yrotation
            JOINT LeftFoot
            {
                OFFSET -0.000000 -42.324711 0.000000
                CHANNELS 3 Zrotation Xrotation Yrotation
                JOINT LeftToeBase
                {
                    OFFSET -0.000000 -5.735999 13.236923
                    CHANNELS 3 Zrotation Xrotation Yrotation
                    End Site
                    {
                        OFFSET -0.000000 0.000000 3.529846
                    }
                }
            }
        }
    }
    JOINT RightUpLeg
    {
        OFFSET -8.824615 0.000000 0.000000
        CHANNELS 3 Zrotation Xrotation Yrotation
        JOINT RightLeg
        {
            OFFSET -0.000000 -35.111282 0.000000
            CHANNELS 3 Zrotation Xrotation Yrotation
            JOINT RightFoot
            {
                OFFSET -0.000000 -42.324711 0.000000
                CHANNELS 3 Zrotation Xrotation Yrotation
                JOINT RightToeBase
                {
                    OFFSET -0.000000 -5.735999 13.236923
                    CHANNELS 3 Zrotation Xrotation Yrotation
                    End Site
                    {
                        OFFSET -0.000000 0.000000 3.529846
                    }
                }
            }
        }
    }
}
MOTION
Frames:    14
Frame Time:    0.008333
-1.293013    82.152672    94.621513    1.820699    -2.778929    -174.007904    0.918541    -12.103452    1.409561    -5.519573    4.549865    1.531647    8.311847    6.687888    -4.070565    5.385265    -0.540535    -4.182199    2.085431    17.793116    -3.574540    -46.340248    45.238144    -36.113136    -2.927746    -1.628761    -15.791071    17.133795    -1.643687    2.596217    -3.056354    6.000184    -2.579535    31.953749    -29.974319    15.928948    -64.327347    -44.270294    67.007561    -39.806404    3.230132    -5.297241    6.059883    -0.317685    -0.315664    -3.084138    6.019333    -0.908142    -0.665571    -7.883881    -8.148734    0.269165    0.468979    -0.298109    -0.021190    3.641938    -1.304999    11.878924    7.220850    -14.155732    0.000000    0.000000    0.000000    0.000000    0.000000    0.000000    
-1.293593    82.154694    94.620544    1.828657    -2.779168    -173.943451    0.926753    -12.093008    1.407396    -5.561141    4.533060    1.529564    8.301018    6.684541    -4.098000    5.418045    -0.531317    -4.205669    2.097796    17.809254    -3.562876    -46.289120    45.230659    -36.163780    -2.928037    -1.570400    -15.812353    17.017054    -1.593455    2.564258    -3.059763    5.978149    -2.580555    31.961260    -30.038851    15.929905    -64.186264    -44.120312    66.954414    -39.973686    3.218278    -5.257786    6.073075    -0.335805    -0.342356    -3.090284    6.027835    -0.946882    -0.662892    -7.880359    -8.147511    0.269813    0.468692    -0.298827    -0.001575    3.653104    -1.358700    11.867726    7.208266    -14.170347    0.000000    0.000000    0.000000    0.000000    0.000000    0.000000    
-1.294100    82.156738    94.619629    1.836622    -2.779515    -173.878464    0.934601    -12.082502    1.405335    -5.602743    4.516162    1.527570    8.289859    6.680422    -4.125931    5.451490    -0.521831    -4.229592    2.110039    17.825678    -3.551230    -46.237160    45.223026    -36.215050    -2.928073    -1.512955    -15.833104    16.901775    -1.543863    2.532640    -3.063564    5.956036    -2.581435    31.968678    -30.102591    15.931155    -64.045563    -43.968163    66.896347    -40.141830    3.205011    -5.218726    6.086283    -0.354161    -0.369506    -3.096379    6.036309    -0.985497    -0.660336    -7.876773    -8.146429    0.270522    0.468384    -0.299612    0.018253    3.664001    -1.413123    11.856253    7.195936    -14.185313    0.000000    0.000000    0.000000    0.000000    0.000000    0.000000    
-1.294456    82.158813    94.618782    1.844645    -2.780043    -173.812576    0.941783    -12.071755    1.403305    -5.644360    4.498888    1.525653    8.278175    6.675112    -4.154629    5.485876    -0.512221    -4.254259    2.121900    17.842989    -3.539280    -46.183273    45.214909    -36.267815    -2.927758    -1.457165    -15.852819    16.789345    -1.495720    2.501455    -3.068273    5.933822    -2.581607    31.975822    -30.165335    15.932922    -63.904182    -43.811783    66.830727    -40.310925    3.189482    -5.180233    6.099738    -0.372786    -0.397810    -3.102788    6.044352    -1.023774    -0.657863    -7.872874    -8.145397    0.271241    0.468565    -0.300408    0.038240    3.674872    -1.467910    11.844922    7.183223    -14.200254    0.000000    0.000000    0.000000    0.000000    0.000000    0.000000    
-1.294579    82.160904    94.618050    1.852740    -2.780861    -173.745743    0.947934    -12.060736    1.401497    -5.685674    4.481130    1.523982    8.265603    6.667782    -4.184462    5.521782    -0.502080    -4.279963    2.133263    17.861210    -3.527441    -46.127617    45.206085    -36.321667    -2.926848    -1.404062    -15.870942    16.681667    -1.449813    2.470829    -3.074111    5.911526    -2.581133    31.982487    -30.225487    15.935356    -63.763748    -43.650349    66.753860    -40.480595    3.170784    -5.143562    6.113431    -0.391738    -0.427461    -3.109402    6.051796    -1.061362    -0.655515    -7.868596    -8.144542    0.272101    0.468663    -0.301361    0.058489    3.685410    -1.523223    11.833606    7.170512    -14.215460    0.000000    0.000000    0.000000    0.000000    0.000000    0.000000    
-1.294422    82.163033    94.617447    1.860818    -2.782048    -173.677734    0.952736    -12.049414    1.399877    -5.726754    4.462879    1.522650    8.251914    6.657474    -4.215647    5.559517    -0.490566    -4.306986    2.144049    17.880726    -3.515283    -46.069317    45.196541    -36.377647    -2.925155    -1.354445    -15.886831    16.579706    -1.407017    2.440845    -3.081645    5.889212    -2.579751    31.988941    -30.282717    15.938900    -63.623539    -43.482456    66.663582    -40.650024    3.148312    -5.109193    6.127326    -0.411047    -0.459001    -3.116348    6.058407    -1.097844    -0.653438    -7.863772    -8.143988    0.273083    0.468955    -0.302449    0.078890    3.695609    -1.578936    11.822434    7.157612    -14.230924    0.000000    0.000000    0.000000    0.000000    0.000000    0.000000    
-1.293920    82.165207    94.617012    1.868982    -2.783627    -173.607758    0.956076    -12.037721    1.398584    -5.768055    4.444028    1.521745    8.237046    6.644047    -4.248675    5.599580    -0.478035    -4.335807    2.154231    17.902107    -3.502883    -46.007294    45.185486    -36.436577    -2.922935    -1.308383    -15.900129    16.483799    -1.367361    2.411212    -3.090550    5.866604    -2.577310    31.994549    -30.336731    15.943589    -63.482529    -43.305672    66.556892    -40.819912    3.121341    -5.077864    6.141573    -0.430864    -0.492995    -3.123534    6.064137    -1.133251    -0.651793    -7.858354    -8.143888    0.274235    0.469413    -0.303724    0.099763    3.705441    -1.635696    11.811151    7.144499    -14.247101    0.000000    0.000000    0.000000    0.000000    0.000000    0.000000    
-1.293036    82.167412    94.616745    1.877111    -2.785661    -173.535904    0.957670    -12.025558    1.397744    -5.809479    4.424456    1.521456    8.220831    6.626910    -4.283708    5.642059    -0.463960    -4.366596    2.164040    17.925411    -3.490387    -45.941799    45.173073    -36.498390    -2.919691    -1.266693    -15.910666    16.394432    -1.331635    2.382164    -3.101352    5.844205    -2.573833    31.999859    -30.386745    15.949910    -63.341541    -43.119881    66.431473    -40.988266    3.089103    -5.050289    6.156117    -0.451094    -0.529765    -3.131196    6.068644    -1.167309    -0.650364    -7.852188    -8.144041    0.275561    0.470355    -0.305192    0.120884    3.714758    -1.693066    11.800006    7.131393    -14.264068    0.000000    0.000000    0.000000    0.000000    0.000000    0.000000    
-1.291735    82.169640    94.616653    1.885182    -2.788197    -173.461777    0.957400    -12.012942    1.397420    -5.851368    4.404201    1.521858    8.203162    6.605500    -4.320984    5.687150    -0.447697    -4.399628    2.173415    17.951044    -3.477521    -45.872066    45.158691    -36.563877    -2.915768    -1.229499    -15.918118    16.311579    -1.299888    2.353554    -3.113931    5.821875    -2.569280    32.004520    -30.432188    15.957911    -63.199818    -42.923988    66.285622    -41.154240    3.051287    -5.027241    6.170893    -0.471772    -0.569667    -3.139211    6.071737    -1.199946    -0.649219    -7.845148    -8.144570    0.277164    0.471385    -0.306967    0.142142    3.723721    -1.750631    11.789331    7.117866    -14.281815    0.000000    0.000000    0.000000    0.000000    0.000000    0.000000    
-1.289989    82.171883    94.616714    1.893146    -2.791162    -173.385345    0.955145    -11.999992    1.397790    -5.893775    4.383464    1.523146    8.183990    6.579546    -4.360620    5.734868    -0.428923    -4.435063    2.182694    17.979002    -3.464632    -45.798584    45.142132    -36.632790    -2.911143    -1.197022    -15.922462    16.234896    -1.272502    2.325670    -3.128249    5.799698    -2.563595    32.008541    -30.472670    15.967606    -63.057346    -42.717674    66.118622    -41.316151    3.007341    -5.009335    6.185871    -0.492694    -0.612887    -3.147588    6.073211    -1.230871    -0.648568    -7.837118    -8.145566    0.278967    0.472888    -0.308964    0.163599    3.732214    -1.808415    11.778913    7.104244    -14.300885    0.000000    0.000000    0.000000    0.000000    0.000000    0.000000    
-1.287775    82.174110    94.616928    1.900982    -2.794538    -173.306244    0.950906    -11.986523    1.398890    -5.937176    4.362134    1.525401    8.163320    6.549185    -4.402761    5.785178    -0.407808    -4.473047    2.192016    18.009525    -3.451577    -45.721069    45.123013    -36.705490    -2.905943    -1.169303    -15.923674    16.163542    -1.249500    2.298065    -3.144071    5.778279    -2.556884    32.012096    -30.508472    15.979742    -62.913124    -42.500282    65.929588    -41.472473    2.957132    -4.997087    6.201101    -0.513845    -0.659762    -3.156419    6.072941    -1.260283    -0.648008    -7.828099    -8.146811    0.281081    0.474305    -0.311304    0.185180    3.740333    -1.866072    11.769032    7.090412    -14.321442    0.000000    0.000000    0.000000    0.000000    0.000000    0.000000    
-1.285090    82.176323    94.617279    1.908579    -2.798321    -173.224594    0.944484    -11.972807    1.400961    -5.981387    4.340584    1.528783    8.141212    6.514083    -4.447379    5.837512    -0.383714    -4.513721    2.201477    18.042229    -3.438701    -45.640625    45.101044    -36.781040    -2.900418    -1.146209    -15.921880    16.096741    -1.230763    2.271007    -3.161512    5.757612    -2.549578    32.015232    -30.538877    15.994370    -62.767338    -42.272442    65.718620    -41.621338    2.900578    -4.990901    6.216395    -0.535078    -0.710278    -3.165607    6.070736    -1.288106    -0.647853    -7.817948    -8.148274    0.283448    0.476197    -0.313923    0.206701    3.748025    -1.923039    11.759791    7.076357    -14.343780    0.000000    0.000000    0.000000    0.000000    0.000000    0.000000    
-1.281921    82.178490    94.617699    1.915902    -2.802399    -173.140030    0.935922    -11.958711    1.403924    -6.026899    4.318720    1.533382    8.117485    6.474526    -4.494584    5.892145    -0.356853    -4.557075    2.211304    18.077097    -3.425870    -45.557514    45.075916    -36.859314    -2.894953    -1.127596    -15.917195    16.033251    -1.216359    2.244163    -3.180228    5.737951    -2.541500    32.017952    -30.564024    16.011690    -62.619122    -42.033520    65.485558    -41.762180    2.837530    -4.990996    6.231841    -0.556200    -0.764806    -3.175318    6.066393    -1.314603    -0.647833    -7.806628    -8.149650    0.286071    0.478164    -0.316828    0.228082    3.755592    -1.979000    11.751495    7.061925    -14.367889    0.000000    0.000000    0.000000    0.000000    0.000000    0.000000    
-1.278293    82.180580    94.618172    1.922861    -2.806587    -173.053345    0.925269    -11.944416    1.407927    -6.073284    4.296992    1.539189    8.092320    6.430933    -4.543878    5.948063    -0.326999    -4.602731    2.221664    18.113638    -3.413529    -45.473415    45.047718    -36.938808    -2.889548    -1.113603    -15.910145    15.972068    -1.206302    2.217743    -3.200065    5.719952    -2.532785    32.020454    -30.583858    16.031887    -62.469406    -41.786030    65.233047    -41.892483    2.768653    -4.997005    6.247151    -0.576906    -0.822575    -3.185104    6.060153    -1.339624    -0.648088    -7.794386    -8.151094    0.289025    0.480227    -0.320099    0.249155    3.763030    -2.033198    11.744138    7.047318    -14.394111    0.000000    0.000000    0.000000    0.000000    0.000000    0.000000    
